<svg width="516" height="97" xmlns="http://www.w3.org/2000/svg" xmlns:xlink="http://www.w3.org/1999/xlink" xml:space="preserve" overflow="hidden"><defs><clipPath id="clip0"><rect x="-112" y="564" width="516" height="97"/></clipPath><clipPath id="clip1"><rect x="-112" y="564" width="516" height="97"/></clipPath><clipPath id="clip2"><rect x="-111" y="564" width="514" height="97"/></clipPath><clipPath id="clip3"><rect x="-111" y="564" width="514" height="97"/></clipPath><clipPath id="clip4"><rect x="-111" y="558" width="514" height="123"/></clipPath></defs><g clip-path="url(#clip0)" transform="translate(112 -564)"><g clip-path="url(#clip1)"><g clip-path="url(#clip2)"><g clip-path="url(#clip3)"><g clip-path="url(#clip4)"><path d="M460.695 531.385C460.695 504.532 482.463 482.764 509.316 482.764L921.734 482.764C948.59 482.764 970.355 504.532 970.355 531.385 970.355 558.238 948.59 580.006 921.734 580.006L509.316 580.006C482.463 580.006 460.695 558.238 460.695 531.385Z" fill="#0070C0" fill-rule="evenodd" fill-opacity="1" transform="matrix(1.00308 0 0 1 -570.349 80.8168)"/><text fill="#FFFFFF" fill-opacity="1" font-family="Arial,Arial_MSFontService,sans-serif" font-style="normal" font-variant="normal" font-weight="700" font-stretch="normal" font-size="83" text-anchor="start" direction="ltr" writing-mode="lr-tb" unicode-bidi="normal" text-decoration="none" transform="matrix(0.69179 0 0 0.689663 -25.2741 633)">Project Page</text></g></g></g></g></g></svg>